<svg xmlns="http://www.w3.org/2000/svg" width="800" height="800" viewBox="0 0 512 512" xmlns:v="https://vecta.io/nano"><path d="M360.102 240.012l10.156-10.266s15.609-13.406 33.406-7.328c30.984 10.578 66.781-.875 91.609-25.734 7.063-7.063 15.641-21.234 15.641-21.234.984-1.344 1.328-3.047.922-4.672l-1.922-7.906c-.359-1.484-1.313-2.75-2.625-3.531-1.313-.766-2.891-.969-4.344-.547l-60.984 16.969a5.65 5.65 0 0 1-6.063-2.109l-28.015-38.594c-.859-1.172-1.219-2.641-1.016-4.063l5.641-41c.297-2.234 1.891-4.047 4.063-4.656l64.406-17.922c2.906-.813 4.672-3.813 3.953-6.766l-2.547-10.359c-.344-1.469-1.281-2.719-2.563-3.5 0 0-5.047-3.344-8.719-5.234-36.578-18.891-82.64-13.031-113.312 17.656-22.656 22.656-31.531 53.688-27.375 83.156 3.203 22.656 1.703 34.703-8.078 45.047-.891.922-3.703 3.734-8.047 8l45.813 44.593zm-148.719 55.406L68.461 433.715c-2.547 2.438-4 5.797-4.047 9.313-.047 3.5 1.344 6.891 3.813 9.375l31.938 31.938a13.07 13.07 0 0 0 9.391 3.813c3.516-.031 6.859-1.5 9.281-4.031L258.165 343.17l-46.782-47.752zM501.43 451.371a13.01 13.01 0 0 0 3.813-9.375c-.031-3.516-1.5-6.859-4.031-9.297L227.415 166.246l-43.953 43.969L450.805 483.09a13.1 13.1 0 0 0 9.297 4.047c3.516.047 6.891-1.344 9.391-3.828l31.937-31.938zM254.196 32.621c-32.969-12.859-86.281-14.719-117.156 16.141l-59.875 59.891c-12.672 12.656-.906 25.219-10.266 34.563-9.359 9.359-24.313 0-32.734 8.422L3.29 182.527c-4.391 4.375-4.391 11.5 0 15.891l43.016 43.016c4.391 4.391 11.516 4.391 15.906 0l30.875-30.875c8.438-8.422-.938-23.375 8.438-32.719 12.609-12.625 26.375-10.484 34.328-2.547l15.891 15.891 17.219 4.531 43.953-43.953-5.063-16.688c-14.016-14.031-16.016-30.266-7.234-39.047 13.594-13.594 36.047-33.234 57.078-41.656 13.405-5.359 9.358-18.703-3.501-21.75zm-59.625 70.859a655.43 655.43 0 0 1 5.969-7.375l-5.969 7.375z"/></svg>